# xmcd
#
# Track frame offsets:
# 150
# 15865
# 31960
# 52957
# 67592
# 84927
# 103860
# 124547
# 144762
# 162570
# 181195
# 199050
# 220382
# 239892
# 260617
# 276292
# 292452
# 310152
#
# Disc length: 4373 seconds
#
#
# Revision: 3
# Processed by: cddbd v1.5.1PL0 Copyright (c) Steve Scherf et al.
# Submitted via: FreeRIP 2.70 
#
DISCID=03111312
DTITLE=Mya - Moodring
DYEAR=2003
DGENRE=R&B
TTITLE0=My Love Is Like...Wo
TTITLE1=Fallen
TTITLE2=Why You Gotta Look So Good?
TTITLE3=Step
TTITLE4=Sophisticated Lady
TTITLE5=No Sleep Tonight
TTITLE6=Anatomy 10n1
TTITLE7=Hurry Up
TTITLE8=Things Come and Go
TTITLE9=You
TTITLE10=After The Rain
TTITLE11=Late
TTITLE12=Whatever Bitch
TTITLE13=Taste This
TTITLE14=Take A Picture
TTITLE15=Free Fallin'
TTITLE16=Moodring
TTITLE17=Real Compared To What
EXTD=
EXTT0=
EXTT1=
EXTT2=
EXTT3=
EXTT4=
EXTT5=
EXTT6=
EXTT7=
EXTT8=
EXTT9=
EXTT10=
EXTT11=
EXTT12=
EXTT13=
EXTT14=
EXTT15=
EXTT16=
EXTT17=
PLAYORDER=
